<?xml version="1.0" standalone="no"?><!DOCTYPE svg PUBLIC "-//W3C//DTD SVG 1.1//EN" "http://www.w3.org/Graphics/SVG/1.1/DTD/svg11.dtd"><svg t="1622888089055" class="icon" viewBox="0 0 1024 1024" version="1.1" xmlns="http://www.w3.org/2000/svg" p-id="868" xmlns:xlink="http://www.w3.org/1999/xlink" width="200" height="200"><defs><style type="text/css"></style></defs><path d="M842.605714 684.617143l108.251429 54.125714a25.6 25.6 0 0 1 10.24 9.508572 23.405714 23.405714 0 0 1-5.12 27.062857h-4.388572l-424.228571 219.428571a38.765714 38.765714 0 0 1-27.062857 0h-6.582857l-424.228572-219.428571a18.285714 18.285714 0 0 1-9.508571-10.24 20.48 20.48 0 0 1 5.851428-26.331429l117.028572-54.125714L512 854.308571z m0-239.908572l108.251429 54.125715a21.211429 21.211429 0 0 1 10.24 9.508571 23.405714 23.405714 0 0 1-5.12 27.062857h-4.388572l-424.228571 219.428572a38.765714 38.765714 0 0 1-27.062857 0h-6.582857L73.142857 537.6a17.554286 17.554286 0 0 1-9.508571-9.508571 21.211429 21.211429 0 0 1 5.851428-27.062858l113.371429-56.32L512 614.4zM496.64 51.931429a35.84 35.84 0 0 1 32.182857 0L950.857143 258.925714a18.285714 18.285714 0 0 1 10.24 9.508572 21.211429 21.211429 0 0 1-9.508572 29.257143l-424.228571 219.428571-15.36 7.314286-239.177143-123.611429L73.142857 297.691429a19.748571 19.748571 0 0 1-9.508571-9.508572 21.211429 21.211429 0 0 1 9.508571-29.257143z" fill="#5A6677" p-id="869"></path></svg>